<?xml version="1.0" encoding="UTF-8"?>
<svg xmlns="http://www.w3.org/2000/svg" xmlns:xlink="http://www.w3.org/1999/xlink" width="54px" height="44px" viewBox="0 0 54 44" version="1.1">
<g id="surface1">
<path style=" stroke:none;fill-rule:evenodd;fill:rgb(64.313725%,54.901961%,83.137255%);fill-opacity:1;" d="M 25.832031 1.269531 C 22.988281 1.496094 20.808594 2.078125 18.378906 3.257812 C 16.125 4.351562 14.488281 5.519531 12.679688 7.339844 C 10.898438 9.128906 9.816406 10.640625 8.699219 12.910156 C 8.074219 14.179688 7.738281 15.046875 7.363281 16.355469 C 6.191406 20.445312 6.253906 24.535156 7.546875 28.550781 C 8.722656 32.207031 10.957031 35.46875 14.027344 38.015625 C 16.015625 39.660156 18.511719 41.011719 21.066406 41.820312 C 24.402344 42.875 28.105469 43.023438 31.535156 42.242188 C 36.714844 41.0625 41.273438 37.894531 44.226562 33.425781 C 46.039062 30.683594 47.125 27.554688 47.492188 24.039062 C 47.597656 23.007812 47.570312 20.808594 47.4375 19.773438 C 46.957031 16.007812 45.519531 12.410156 43.332031 9.492188 C 41.378906 6.890625 38.933594 4.863281 35.949219 3.367188 C 33.75 2.261719 31.601562 1.621094 29.1875 1.351562 C 28.289062 1.25 26.597656 1.210938 25.832031 1.269531 M 25.882812 3.445312 C 23.371094 3.644531 20.824219 4.382812 18.617188 5.546875 C 15.808594 7.03125 13.570312 9.078125 11.722656 11.851562 C 9.535156 15.132812 8.398438 19.488281 8.703125 23.433594 C 8.992188 27.175781 10.324219 30.675781 12.519531 33.449219 C 13.058594 34.132812 14.308594 35.445312 14.949219 36.003906 C 17.292969 38.046875 20.15625 39.496094 23.097656 40.125 C 27.300781 41.027344 31.605469 40.480469 35.359375 38.570312 C 36.585938 37.941406 37.464844 37.371094 38.65625 36.425781 C 39.324219 35.890625 40.898438 34.304688 41.472656 33.582031 C 43.632812 30.867188 44.949219 27.601562 45.359375 23.960938 C 45.445312 23.1875 45.441406 20.996094 45.355469 20.199219 C 44.925781 16.230469 43.285156 12.542969 40.617188 9.542969 C 37.964844 6.558594 34.414062 4.523438 30.480469 3.742188 C 29.121094 3.472656 27.15625 3.34375 25.882812 3.445312 M 18.113281 8.035156 C 17.417969 8.261719 17.070312 8.742188 16.515625 10.230469 C 15.921875 11.84375 15.382812 13.808594 14.976562 15.878906 C 14.859375 16.488281 14.664062 17.417969 14.550781 17.941406 C 14.039062 20.25 13.921875 21.066406 13.886719 22.53125 C 13.839844 24.3125 14.046875 25.773438 14.566406 27.351562 C 16.050781 31.863281 20.058594 35.261719 24.835938 36.070312 C 27.609375 36.535156 30.527344 36.105469 32.984375 34.875 C 36.761719 32.976562 39.316406 29.5625 40.023438 25.460938 C 40.273438 24.023438 40.292969 22.21875 40.078125 20.703125 C 40.015625 20.265625 39.828125 19.261719 39.65625 18.476562 C 39.488281 17.6875 39.285156 16.722656 39.207031 16.328125 C 38.714844 13.820312 38.335938 12.390625 37.667969 10.523438 C 37.210938 9.25 37.023438 8.855469 36.726562 8.539062 C 36.375 8.15625 35.984375 7.976562 35.515625 7.976562 C 35.09375 7.976562 34.921875 8.039062 34.410156 8.363281 C 33.113281 9.191406 31.15625 10.96875 29.789062 12.5625 C 29.210938 13.234375 29.109375 13.332031 28.972656 13.328125 C 28.890625 13.328125 28.464844 13.292969 28.03125 13.253906 C 27.214844 13.183594 26.28125 13.203125 25.484375 13.308594 C 25.230469 13.34375 25.023438 13.347656 24.972656 13.320312 C 24.925781 13.296875 24.757812 13.109375 24.601562 12.910156 C 23.191406 11.132812 20.382812 8.621094 19.238281 8.113281 C 18.902344 7.964844 18.441406 7.933594 18.113281 8.035156 M 18.550781 10.257812 C 18.363281 10.363281 18.199219 10.65625 17.914062 11.398438 C 17.339844 12.890625 16.941406 14.542969 16.742188 16.238281 C 16.589844 17.527344 16.648438 17.917969 16.992188 17.917969 C 17.132812 17.917969 17.28125 17.792969 18.03125 17.054688 C 19.128906 15.976562 19.933594 15.390625 21.121094 14.792969 C 21.585938 14.5625 22.117188 14.320312 22.304688 14.253906 C 22.734375 14.109375 22.96875 13.902344 22.917969 13.710938 C 22.847656 13.417969 20.863281 11.503906 19.90625 10.804688 C 19.117188 10.226562 18.820312 10.109375 18.550781 10.257812 M 35.058594 10.253906 C 34.496094 10.453125 32.746094 11.953125 31.597656 13.21875 C 31.03125 13.835938 31.066406 13.988281 31.835938 14.269531 C 32.472656 14.503906 33.5625 15.0625 34.144531 15.453125 C 34.921875 15.980469 35.542969 16.5 36.273438 17.25 C 36.800781 17.792969 36.953125 17.917969 37.074219 17.917969 C 37.3125 17.917969 37.441406 17.707031 37.441406 17.308594 C 37.441406 16.089844 37.039062 13.929688 36.511719 12.324219 C 36.023438 10.835938 35.800781 10.375 35.511719 10.253906 C 35.300781 10.164062 35.304688 10.164062 35.058594 10.253906 M 21.199219 20.515625 C 20.148438 20.703125 19.386719 21.484375 19.160156 22.609375 C 18.796875 24.40625 20.484375 25.992188 22.265625 25.527344 C 22.765625 25.394531 23.054688 25.230469 23.425781 24.859375 C 23.941406 24.347656 24.167969 23.851562 24.195312 23.183594 C 24.214844 22.796875 24.195312 22.621094 24.109375 22.332031 C 23.722656 21.0625 22.480469 20.289062 21.199219 20.515625 M 31.863281 20.542969 C 30.199219 20.90625 29.351562 22.980469 30.289062 24.398438 C 30.800781 25.171875 31.578125 25.605469 32.429688 25.601562 C 33.699219 25.59375 34.75 24.710938 34.96875 23.472656 C 35.203125 22.144531 34.253906 20.761719 32.9375 20.519531 C 32.539062 20.445312 32.277344 20.453125 31.863281 20.542969 M 25.902344 26.613281 C 25.722656 26.722656 25.574219 26.992188 25.578125 27.207031 C 25.578125 27.4375 25.773438 27.769531 25.992188 27.914062 L 26.210938 28.058594 L 26.207031 28.539062 C 26.207031 29.328125 26.121094 29.550781 25.691406 29.882812 C 25.027344 30.394531 24.085938 30.160156 23.621094 29.367188 C 23.269531 28.761719 23.234375 28.710938 23.050781 28.589844 C 22.707031 28.355469 22.191406 28.472656 21.953125 28.832031 C 21.863281 28.96875 21.832031 29.089844 21.832031 29.3125 C 21.832031 29.707031 22.085938 30.152344 22.625 30.695312 C 23.277344 31.355469 23.964844 31.648438 24.863281 31.648438 C 25.65625 31.648438 26.1875 31.464844 26.738281 31 L 27.050781 30.738281 L 27.328125 30.984375 C 27.894531 31.484375 28.53125 31.679688 29.4375 31.636719 C 30.207031 31.597656 30.800781 31.355469 31.34375 30.859375 C 31.597656 30.621094 32.074219 29.953125 32.175781 29.679688 C 32.300781 29.347656 32.300781 29.191406 32.164062 28.910156 C 32.011719 28.59375 31.761719 28.449219 31.433594 28.480469 C 31.082031 28.511719 30.890625 28.667969 30.632812 29.140625 C 30.222656 29.886719 29.902344 30.121094 29.28125 30.128906 C 28.871094 30.136719 28.59375 30.042969 28.332031 29.820312 C 27.984375 29.519531 27.898438 29.277344 27.898438 28.613281 L 27.898438 28.050781 L 28.105469 27.902344 C 28.511719 27.617188 28.632812 27.113281 28.378906 26.773438 C 28.203125 26.53125 28.09375 26.507812 27.054688 26.507812 C 26.167969 26.507812 26.0625 26.515625 25.902344 26.613281 "/>
</g>
</svg>
